<svg xmlns="http://www.w3.org/2000/svg" viewBox="0 0 68.27 59.85"><defs><style>.cls-1{fill:#1a1a1a;}</style></defs><g id="Layer_2" data-name="Layer 2"><g id="Layer_1-2" data-name="Layer 1"><g id="Layer_2-2" data-name="Layer 2"><g id="tiger-texture"><path id="fs-yellow" class="cls-1" d="M59.31,43.63a2.65,2.65,0,0,0-1.38-2.15,13.24,13.24,0,0,0-4.76-1.69A21.2,21.2,0,0,1,45,36.56a7.52,7.52,0,0,1-2.77-6.15,9.42,9.42,0,0,1,3.37-7,13.47,13.47,0,0,1,9.18-2.78,15.35,15.35,0,0,1,9.66,2.78,7.86,7.86,0,0,1,3.39,7.25v.15H58.7A3.81,3.81,0,0,0,57.79,28a4.18,4.18,0,0,0-3-1A3.86,3.86,0,0,0,52.2,28a2.47,2.47,0,0,0-1,2.14,2.67,2.67,0,0,0,1.23,2.16,13,13,0,0,0,4.77,1.54A20.09,20.09,0,0,1,65.48,37a7.57,7.57,0,0,1,2.77,6.3,8.37,8.37,0,0,1-3.62,6.91A15.66,15.66,0,0,1,54.82,53a14.83,14.83,0,0,1-10-3.23,8.58,8.58,0,0,1-3.37-7.25v-.15h8.76a3.12,3.12,0,0,0,1.38,3.07,7.84,7.84,0,0,0,3.62,1.09,4.77,4.77,0,0,0,2.92-.78A2.18,2.18,0,0,0,59.31,43.63Zm-37,8.91V28H17.83V21.2h4.44V18a11.24,11.24,0,0,1,3.12-8.29A11.49,11.49,0,0,1,33,7.25h6.15v7.8H35.55a3.77,3.77,0,0,0-2.76.93,3.74,3.74,0,0,0-.93,2.75v2.33h6V27.8h-6V52.23H22.27v.36ZM3.84,10.14C3.84.76,8.76,0,17.05,0V7.38c-3.83,0-5.44.6-5.44,2.92V22.43c0,2.76.14,5.68-2.16,7.53,2.3,1.81,2.16,4.61,2.16,7.53V49.62c0,2.47,1.54,2.92,5.44,2.92v7.31c-8.29,0-13.21-.78-13.21-10.14V37.49c0-2,0-4.16-3.84-4.16V26.88c3.84,0,3.84-2.31,3.84-4.14Z"/></g></g></g></g></svg>