<svg xmlns="http://www.w3.org/2000/svg" xmlns:xlink="http://www.w3.org/1999/xlink" viewBox="0 0 44.935 44.935">
  <defs>
    <style>
      .cls-1 {
        fill: none;
      }

      .cls-2 {
        clip-path: url(#clip-path);
      }

      .cls-3 {
        fill: #ffa800;
      }

      .cls-4 {
        fill: #ffd100;
      }

      .cls-5 {
        fill: #ff7c00;
      }
    </style>
    <clipPath id="clip-path">
      <path id="Path_269" data-name="Path 269" class="cls-1" d="M0,0H44.935V-44.935H0Z"/>
    </clipPath>
  </defs>
  <g id="ill_euro" transform="translate(-8098 -5843.935)">
    <g id="Group_349" data-name="Group 349" class="cls-2" transform="translate(8098 5888.87)">
      <g id="Group_343" data-name="Group 343" transform="translate(22.468)">
        <path id="Path_263" data-name="Path 263" class="cls-3" d="M0,0A22.467,22.467,0,0,1-22.467-22.468,22.467,22.467,0,0,1,0-44.935,22.468,22.468,0,0,1,22.468-22.468,22.468,22.468,0,0,1,0,0"/>
      </g>
      <g id="Group_344" data-name="Group 344" transform="translate(14.972 -40.539)">
        <path id="Path_264" data-name="Path 264" class="cls-4" d="M0,0A4.085,4.085,0,0,1,3.332-4.01,22.52,22.52,0,0,1,7.5-4.4,4.084,4.084,0,0,1,11.581-.311,4.085,4.085,0,0,1,7.5,3.774a14.4,14.4,0,0,0-2.656.245A4.084,4.084,0,0,1,.072.758,4.1,4.1,0,0,1,0,0"/>
      </g>
      <g id="Group_345" data-name="Group 345" transform="translate(31.318 -35.528)">
        <path id="Path_265" data-name="Path 265" class="cls-4" d="M0,0A4.077,4.077,0,0,1,1.182-2.875,4.088,4.088,0,0,1,6.96-2.9a22.316,22.316,0,0,1,6.657,15.964,4.085,4.085,0,1,1-8.17,0A14.193,14.193,0,0,0,1.21,2.9,4.076,4.076,0,0,1,0,0"/>
      </g>
      <g id="Group_346" data-name="Group 346" transform="translate(22.468 -8.17)">
        <path id="Path_266" data-name="Path 266" class="cls-5" d="M0,0A14.3,14.3,0,0,1-14.3-14.3,14.3,14.3,0,0,1,0-28.595,14.3,14.3,0,0,1,14.3-14.3,14.3,14.3,0,0,1,0,0"/>
      </g>
      <g id="Group_347" data-name="Group 347" transform="translate(22.468 -4.453)">
        <path id="Path_267" data-name="Path 267" class="cls-5" d="M0,0A18.015,18.015,0,0,1-18.015-18.015,18.016,18.016,0,0,1,0-36.03,18.016,18.016,0,0,1,18.015-18.015,18.015,18.015,0,0,1,0,0"/>
      </g>
      <g id="Group_348" data-name="Group 348" transform="translate(29.346 -9.751)">
        <path id="Path_268" data-name="Path 268" class="cls-4" d="M0,0V-2.387c0-.428-.178-.749-.677-.749H-.784c-1.924.143-3.242.285-5.131.285-2.672,0-4.988-1.389-5.523-4.988H-4.81c.392,0,.605-.321.712-.713l.464-1.71c0-.071.035-.107.035-.178a.556.556,0,0,0-.57-.535h-7.34V-13.4h8.231c.392,0,.606-.32.712-.712l.464-1.711c0-.071.035-.107.035-.178a.555.555,0,0,0-.57-.534H-11.4c.57-3.563,2.85-4.882,5.523-4.882,1.888,0,3.42.143,5.1.285h.107c.5,0,.677-.32.677-.748v-2.387c0-.5-.321-.677-.784-.82a21.251,21.251,0,0,0-5.167-.57c-4.026,0-9.691,1.746-10.475,9.122H-17.78a.714.714,0,0,0-.713.712v1.711a.714.714,0,0,0,.713.712H-16.5v2.423H-17.78a.715.715,0,0,0-.713.713v1.71a.715.715,0,0,0,.713.713h1.354C-15.785-.57-10.013,1.39-5.986,1.39A21.664,21.664,0,0,0-.784.82C-.321.677,0,.5,0,0"/>
      </g>
    </g>
  </g>
</svg>
