<?xml version="1.0" encoding="UTF-8"?>
<svg width="257px" height="110px" viewBox="0 0 257 110" version="1.1" xmlns="http://www.w3.org/2000/svg" xmlns:xlink="http://www.w3.org/1999/xlink">
    <!-- Generator: Sketch 50.2 (55047) - http://www.bohemiancoding.com/sketch -->
    <title>handschoen</title>
    <desc>Created with Sketch.</desc>
    <defs></defs>
    <g id="Page-1" stroke="none" stroke-width="1" fill="none" fill-rule="evenodd">
        <g id="handschoen">
            <g>
                <path d="M38.3703704,23.6571429 L38.3703704,87.9428571 C38.3703704,95.0421429 32.7320243,100.8 25.7800926,100.8 C18.8281609,100.8 13.1898148,95.0421429 13.1898148,87.9428571 L13.1898148,23.6571429 C13.1898148,16.5578571 18.8281609,10.8 25.7800926,10.8 C32.7320243,10.8 38.3703704,16.5578571 38.3703704,23.6571429" id="Fill-1" fill="#FFA900"></path>
                <path d="M61.1527778,32.0571429 L61.1527778,96.3428571 C61.1527778,103.442143 55.5144317,109.2 48.5625,109.2 C41.6105683,109.2 35.9722222,103.442143 35.9722222,96.3428571 L35.9722222,32.0571429 C35.9722222,24.9578571 41.6105683,19.2 48.5625,19.2 C55.5144317,19.2 61.1527778,24.9578571 61.1527778,32.0571429" id="Fill-3" fill="#FFA900"></path>
                <path d="M85.1342593,23.6571429 L85.1342593,87.9428571 C85.1342593,95.0421429 79.4959132,100.8 72.5439815,100.8 C65.5920498,100.8 59.9537037,95.0421429 59.9537037,87.9428571 L59.9537037,23.6571429 C59.9537037,16.5578571 65.5920498,10.8 72.5439815,10.8 C79.4959132,10.8 85.1342593,16.5578571 85.1342593,23.6571429" id="Fill-5" fill="#FFA900"></path>
                <path d="M68.3959025,4.8 L108.028454,44.5220822 C112.675701,49.1595651 112.675701,56.6827849 108.028454,61.3202678 C103.376878,65.9599107 95.8399832,65.9599107 91.190572,61.3202678 L51.5601852,21.6003456 L68.3959025,4.8 Z" id="Fill-7" fill="#FFA900"></path>
                <path d="M49.7615741,75.6 C29.5632066,75.6 13.1898148,59.16024 13.1898148,38.88 L13.1898148,10.8 L86.3333333,10.8 L86.3333333,38.88 C86.3333333,59.16024 69.9599416,75.6 49.7615741,75.6" id="Fill-9" fill="#FF7E00"></path>
                <path d="M86.5679348,24 L11.7561393,24 C5.26247544,24 0,18.6283636 0,12 C0,5.37163636 5.26247544,0 11.7561393,0 L86.5679348,0 C93.0594612,0 98.3240741,5.37163636 98.3240741,12 C98.3240741,18.6283636 93.0594612,24 86.5679348,24" id="Fill-11" fill="#FFA900"></path>
                <path d="M59.541522,49.2 L39.9816262,49.2 C35.7805952,49.2 32.375,45.9764571 32.375,42 C32.375,38.0235429 35.7805952,34.8 39.9816262,34.8 L59.541522,34.8 C63.742553,34.8 67.1481481,38.0235429 67.1481481,42 C67.1481481,45.9764571 63.742553,49.2 59.541522,49.2" id="Fill-13" fill="#FFD100"></path>
                <path d="M36.5717593,85.2 C34.2551481,85.2 32.375,83.3184 32.375,81 L32.375,64.2 C32.375,61.8816 34.2551481,60 36.5717593,60 C38.8883704,60 40.7685185,61.8816 40.7685185,64.2 L40.7685185,81 C40.7685185,83.3184 38.8883704,85.2 36.5717593,85.2" id="Fill-15" fill="#FF7E00"></path>
                <path d="M61.7523148,85.2 C59.4357037,85.2 57.5555556,83.3184 57.5555556,81 L57.5555556,64.2 C57.5555556,61.8816 59.4357037,60 61.7523148,60 C64.0689259,60 65.9490741,61.8816 65.9490741,64.2 L65.9490741,81 C65.9490741,83.3184 64.0689259,85.2 61.7523148,85.2" id="Fill-17" fill="#FF7E00"></path>
                <path d="M218.231481,23.6571429 L218.231481,87.9428571 C218.231481,95.0421429 223.869828,100.8 230.821759,100.8 C237.773691,100.8 243.412037,95.0421429 243.412037,87.9428571 L243.412037,23.6571429 C243.412037,16.5578571 237.773691,10.8 230.821759,10.8 C223.869828,10.8 218.231481,16.5578571 218.231481,23.6571429" id="Fill-19" fill="#FFA900"></path>
                <path d="M194.25,32.0571429 L194.25,96.3428571 C194.25,103.442143 199.888346,109.2 206.840278,109.2 C213.792209,109.2 219.430556,103.442143 219.430556,96.3428571 L219.430556,32.0571429 C219.430556,24.9578571 213.792209,19.2 206.840278,19.2 C199.888346,19.2 194.25,24.9578571 194.25,32.0571429" id="Fill-21" fill="#FFA900"></path>
                <path d="M171.467593,23.6571429 L171.467593,87.9428571 C171.467593,95.0421429 177.105939,100.8 184.05787,100.8 C191.009802,100.8 196.648148,95.0421429 196.648148,87.9428571 L196.648148,23.6571429 C196.648148,16.5578571 191.009802,10.8 184.05787,10.8 C177.105939,10.8 171.467593,16.5578571 171.467593,23.6571429" id="Fill-23" fill="#FFA900"></path>
                <path d="M188.205949,4.8 L148.573398,44.5220822 C143.926151,49.1595651 143.926151,56.6827849 148.573398,61.3202678 C153.224974,65.9599107 160.761869,65.9599107 165.41128,61.3202678 L205.041667,21.6003456 L188.205949,4.8 Z" id="Fill-25" fill="#FFA900"></path>
                <path d="M208.039352,75.6 C228.237719,75.6 244.611111,59.16024 244.611111,38.88 L244.611111,10.8 L171.467593,10.8 L171.467593,38.88 C171.467593,59.16024 187.840984,75.6 208.039352,75.6" id="Fill-27" fill="#FF7E00"></path>
                <path d="M170.033917,24 L244.845713,24 C251.337239,24 256.601852,18.6283636 256.601852,12 C256.601852,5.37163636 251.337239,0 244.845713,0 L170.033917,0 C163.540253,0 158.277778,5.37163636 158.277778,12 C158.277778,18.6283636 163.540253,24 170.033917,24" id="Fill-29" fill="#FFA900"></path>
                <path d="M198.259404,49.2 L217.8193,49.2 C222.020331,49.2 225.425926,45.9764571 225.425926,42 C225.425926,38.0235429 222.020331,34.8 217.8193,34.8 L198.259404,34.8 C194.058373,34.8 190.652778,38.0235429 190.652778,42 C190.652778,45.9764571 194.058373,49.2 198.259404,49.2" id="Fill-31" fill="#FFD100"></path>
                <path d="M220.030093,85.2 C222.346704,85.2 224.226852,83.3184 224.226852,81 L224.226852,64.2 C224.226852,61.8816 222.346704,60 220.030093,60 C217.713481,60 215.833333,61.8816 215.833333,64.2 L215.833333,81 C215.833333,83.3184 217.713481,85.2 220.030093,85.2" id="Fill-33" fill="#FF7E00"></path>
                <path d="M194.849537,85.2 C197.166148,85.2 199.046296,83.3184 199.046296,81 L199.046296,64.2 C199.046296,61.8816 197.166148,60 194.849537,60 C192.532926,60 190.652778,61.8816 190.652778,64.2 L190.652778,81 C190.652778,83.3184 192.532926,85.2 194.849537,85.2" id="Fill-35" fill="#FF7E00"></path>
            </g>
        </g>
    </g>
</svg>