<svg xmlns="http://www.w3.org/2000/svg" viewBox="0 0 55.125 72.876"><defs><style>.a{fill:#3057ff;}.b{fill:#3fc7ff;}.c{fill:#8addff;}.d{fill:#def4ff;}</style></defs><g transform="translate(-0.014)"><path class="a" d="M54.7,59.9a10,10,0,1,0-6.6,12.5A9.975,9.975,0,0,0,54.7,59.9Zm-8.4,6.8a3.969,3.969,0,0,1-5-2.6,3.929,3.929,0,0,1,2.6-5,4.051,4.051,0,0,1,5,2.6A3.929,3.929,0,0,1,46.3,66.7Z"/><path class="a" d="M44.3,54.3l-6.2,5.1-7.3-9L26.9,38a1.66,1.66,0,0,1,2.9-1.5Z"/><path class="b" d="M15.1,0h0A9.938,9.938,0,0,0,8.5,12.5L18,43.1l9.5-3Z"/><path class="c" d="M21.7,38.1l4.8-1.5L15.1,0h0a5.06,5.06,0,0,0-3.3,6.3Z"/><path class="b" d="M13,53.3A9.975,9.975,0,0,0,.5,59.9,9.841,9.841,0,0,0,7,72.4a9.9,9.9,0,0,0,12.5-6.6A10,10,0,0,0,13,53.3Zm.8,10.8a3.985,3.985,0,1,1-2.6-5A3.969,3.969,0,0,1,13.8,64.1Z"/><path class="d" d="M10.7,57.1a3.036,3.036,0,1,1-2-3.8A3.037,3.037,0,0,1,10.7,57.1Z"/><path class="b" d="M10.9,54.3l6.2,5.1,7.3-9,4-13A1.5,1.5,0,0,0,25.8,36Z"/><path class="c" d="M40.1,0h0a10.017,10.017,0,0,1,6.6,12.5L37.2,43l-9.5-3Z"/><path class="d" d="M33.6,37.4l-4.8-1.5L40.1,0h0a5.06,5.06,0,0,1,3.3,6.3Z"/><path class="c" d="M37.1,43.1a10,10,0,1,1-6.6-12.5A9.9,9.9,0,0,1,37.1,43.1Z"/><circle class="b" cx="4" cy="4" r="4" transform="translate(23.6 36)"/></g></svg>