<?xml version="1.0" encoding="UTF-8"?>
<svg width="83px" height="221px" viewBox="0 0 83 221" version="1.1" xmlns="http://www.w3.org/2000/svg" xmlns:xlink="http://www.w3.org/1999/xlink">
    <!-- Generator: Sketch 50.2 (55047) - http://www.bohemiancoding.com/sketch -->
    <title>sleutel</title>
    <desc>Created with Sketch.</desc>
    <defs></defs>
    <g id="Page-1" stroke="none" stroke-width="1" fill="none" fill-rule="evenodd">
        <g id="Artboard-1" transform="translate(-26.000000, -31.000000)">
            <g id="sleutel" transform="translate(26.000000, 31.000000)">
                <g id="Group-9" transform="translate(10.000000, 26.000000)">
                    <path d="M45.4747222,17.55 L37.0010494,26.949 L35.4478704,24.414 C35.4478704,24.414 6.72388889,36.2895 5.95712963,34.1835 C5.07240741,31.8435 4.52191358,29.3865 4.34496914,26.8905 C3.97141975,21.879 5.03308642,16.692 7.70691358,11.9925 L14.5094444,0 L21.8821296,4.173 L33.3835185,10.7055 L41.1494136,15.093 L45.4747222,17.55 Z" id="Fill-1" fill="#007EFF"></path>
                    <path d="M33.6784259,25.467 L29.1171914,28.197 L29.1171914,28.2165 L25.1064506,30.5955 L22.8061728,31.98 C23.3370062,31.2195 23.9464815,30.498 24.6345988,29.835 C25.48,28.9965 26.4433642,28.2555 27.4657099,27.6315 C27.4853704,27.612 27.5246914,27.5925 27.5443519,27.5925 C27.8392593,27.417 28.1341667,27.2415 28.4290741,27.105 C29.5890432,26.5005 30.8276543,26.0325 32.1449074,25.7595 C32.6364198,25.623 33.1672531,25.5255 33.6784259,25.467" id="Fill-3" fill="#49DFFF"></path>
                    <path d="M51.3335494,39.975 C51.0976235,36.0555 49.3871605,32.526 46.7723148,29.913 C45.1011728,28.2555 43.0564815,26.988 40.7758642,26.208 L40.7758642,26.1885 C39.969784,25.9155 39.1243827,25.701 38.2396605,25.584 C37.7088272,25.467 37.1583333,25.4085 36.588179,25.389 C36.4112346,25.3695 36.2146296,25.35 36.0180247,25.35 L37.0010494,26.949 L43.6069753,37.8105 L38.5149074,43.446 L37.0207099,45.1035 L37.0010494,45.123 L33.7963889,48.6915 L33.7767284,48.6915 L27.0135185,56.199 L19.9160802,60.45 L19.9160802,179.4 C19.9160802,188.019 26.954537,195 35.6444753,195 C44.3344136,195 51.3728704,188.019 51.3728704,179.4 L51.3728704,40.95 C51.3728704,40.6185 51.3532099,40.287 51.3335494,39.975 Z M41.365679,175.578 C41.365679,178.776 38.7508333,181.35 35.5461728,181.35 C32.3415123,181.35 29.7463272,178.776 29.7463272,175.578 L29.9232716,161.85 C29.9232716,158.6715 32.5381173,156.078 35.7427778,156.078 C37.3352778,156.078 38.7901543,156.7215 39.851821,157.7745 C40.8938272,158.8275 41.5426235,160.2705 41.5426235,161.85 L41.365679,175.578 Z" id="Fill-5" fill="#49DFFF"></path>
                    <path d="M37.0010494,26.949 L36.0180247,25.35 L35.4478704,24.414 L33.6784259,25.467 L29.1171914,28.197 L29.1171914,28.2165 L25.1064506,30.5955 L33.324537,43.9725 L37.3549383,41.5545 L43.6069753,37.8105 L37.0010494,26.949 Z M40.7758642,26.208 L40.7758642,26.1885 L39.4192901,24.258 L35.4675309,18.564 L34.5041667,17.1795 L21.8821296,25.818 L18.0679938,28.4505 L14.450463,30.927 L10.4200617,33.6765 L10.1054938,33.891 C10.0858333,33.9105 10.0858333,33.891 10.0858333,33.891 L0.884722222,40.209 L14.8633333,60.294 L31.4961111,48.906 L31.9876235,48.555 L34.917037,46.566 L37.0010494,45.123 L37.0207099,45.1035 L38.8098148,43.8945 L45.2781173,39.4485 L48.4827778,37.2645 L40.7758642,26.208 Z M27.0135185,47.736 L25.3816975,48.711 L17.1636111,35.3535 L19.9357407,33.696 L21.8821296,32.526 L22.7865123,31.9995 L22.8061728,31.98 L25.1064506,30.5955 L33.324537,43.9725 L27.0135185,47.736 Z" id="Fill-7" fill="#007EFF"></path>
                </g>
                <polygon id="Fill-10" fill="#001939" points="33.5628415 55.1528926 34 55.9586777 31.8688525 57.4256198 31.8506375 57.446281 31.0127505 58.0041322 29.2094718 59.2438017 26.6411658 61 24.8378871 57.6322314 24.8014572 57.5702479 24.1275046 56.3099174 24 56.0826446 27.4790528 53.6859504 31.0127505 51.2272727 31.3406193 51 31.6320583 51.5578512 33.0528233 54.1818182"></polygon>
                <polygon id="Fill-11" fill="#001939" points="46 70.9484536 42.904277 72.8659794 42.3340122 73.2164948 37.8126273 76 36 73.0103093 37.6904277 71.9793814 44.2281059 68 45.8778004 70.742268"></polygon>
                <polygon id="Fill-12" fill="#007EFF" points="55 66.741713 48.4852232 71 36 49.258287 42.5147768 45"></polygon>
                <g id="Group-23">
                    <path d="M31.5389973,2.6183908 L31.5389973,54.7126437 C31.5389973,54.7126437 17.0893265,61.4931034 15.7010631,59.6563218 C14.4692238,58.0344828 13.3547025,56.3149425 12.3966053,54.4977011 C12.2401812,54.1850575 12.0642042,53.8724138 11.9273331,53.5597701 C9.46365449,48.616092 8.07539112,43.0275862 8.07539112,37.1264368 C8.07539112,21.4551724 17.7932347,8.05057471 31.5389973,2.6183908" id="Fill-13" fill="#007EFF"></path>
                    <path d="M82.3768106,37.1264368 C82.3768106,50.237931 75.5723648,61.7666667 65.2874841,68.3517241 C63.8796678,69.2505747 62.3936394,70.0712644 60.868505,70.7942529 C59.4020296,71.4781609 57.8964482,72.0643678 56.3322078,72.5528736 C52.8322199,73.6666667 49.0975959,74.2528736 45.2261009,74.2528736 C44.6004047,74.2528736 43.9747085,74.2333333 43.3685654,74.1942529 C42.7819752,74.1747126 42.2149381,74.1356322 41.6479009,74.0770115 C41.6283479,74.0770115 41.6087949,74.0770115 41.5892419,74.0574713 C39.9076835,73.9011494 38.245678,73.6275862 36.6423316,73.2367816 L42.9188463,69.4655172 L46.9272123,67.0425287 L53.145068,63.2908046 L46.5752582,52.4068966 L45.597608,50.8045977 L45.0305708,49.8666667 L43.2708004,50.9218391 L38.7345032,53.6574713 L34.7456901,56.0609195 L32.4579885,57.4482759 L32.4384355,57.4678161 L31.5389973,57.9954023 L29.6032498,59.1678161 C29.2708487,58.2298851 28.8797886,57.291954 28.4496225,56.3735632 C28.4105165,56.2954023 28.3909635,56.2367816 28.3323044,56.1586207 C28.1172214,55.6701149 27.8825853,55.1816092 27.6283963,54.7126437 L31.5389973,52.3091954 L32.2037995,51.8988506 L36.1535065,49.4758621 L42.8210812,45.3724138 L45.0501238,44.0045977 L50.7009423,40.5264368 L53.0473029,39.0804598 L53.0473029,0.840229885 C69.8042283,4.41609195 82.3768106,19.3057471 82.3768106,37.1264368" id="Fill-15" fill="#49DFFF"></path>
                    <path d="M68.8461311,37.4195402 L62.0807913,25.4022989 L53.0473029,30.4827586 L42.9775053,36.1298851 L31.5389973,42.5586207 L14.0977167,52.3482759 L11.9273331,53.5597701 L0,60.262069 L29.5836968,112.708046 L35.4495983,123.103448 L39.4775174,113.352874 L39.4970704,113.333333 L49.2931259,89.591954 L56.3322078,72.5528736 L58.6981214,66.8275862 C59.4411356,66.3977011 60.1645968,65.9678161 60.829399,65.4597701 C60.848952,65.4597701 60.848952,65.4402299 60.868505,65.4402299 C62.5109574,64.3068966 63.9774328,63.0172414 65.2874841,61.5908046 C72.8349441,53.3643678 74.6142676,47.6781609 68.8461311,37.4195402 Z M15.7401691,67.5114943 L18.8295439,65.6551724 L20.3742314,64.7172414 L26.846276,60.8287356 L29.6032498,59.1678161 L31.5389973,57.9954023 L32.4384355,57.4678161 L32.4579885,57.4482759 L34.7456901,56.0609195 L38.7345032,53.6770115 L38.7345032,53.6574713 L43.2708004,50.9218391 L45.0305708,49.8666667 L45.597608,50.8045977 L46.5752582,52.4068966 L53.145068,63.2908046 L46.9272123,67.0425287 L42.9188463,69.4655172 L36.6423316,73.2367816 L35.0194322,74.2137931 L29.5836968,77.4965517 L23.8546663,80.9551724 L15.7401691,67.5114943 Z" id="Fill-17" fill="#49DFFF"></path>
                    <path d="M45.1347883,169.914023 C41.9456932,169.914023 39.3607859,167.328851 39.3607859,164.137931 L39.5426289,93.7931034 C39.5426289,90.6021839 42.1275362,88.0170115 45.3166313,88.0170115 C48.5057264,88.0170115 51.092589,90.6021839 51.092589,93.7931034 L50.9087908,164.137931 C50.9087908,167.328851 48.3238835,169.914023 45.1347883,169.914023" id="Fill-19" fill="#007EFF"></path>
                    <path d="M68.689707,47.7367816 C68.689707,52.0532184 65.1877638,55.5528736 60.868505,55.5528736 C56.5492461,55.5528736 53.0473029,52.0532184 53.0473029,47.7367816 C53.0473029,43.4203448 56.5492461,39.9206897 60.868505,39.9206897 C65.1877638,39.9206897 68.689707,43.4203448 68.689707,47.7367816" id="Fill-21" fill="#D5F5FF"></path>
                </g>
            </g>
        </g>
    </g>
</svg>