<?xml version="1.0" encoding="utf-8"?>
<!-- Generator: Adobe Illustrator 25.2.0, SVG Export Plug-In . SVG Version: 6.00 Build 0)  -->
<svg version="1.1" id="Layer_1" xmlns="http://www.w3.org/2000/svg" xmlns:xlink="http://www.w3.org/1999/xlink" x="0px" y="0px"
	 viewBox="0 0 131 123" style="enable-background:new 0 0 131 123;" xml:space="preserve">
<style type="text/css">
	.st0{fill:#FFCC35;}
	.st1{clip-path:url(#SVGID_2_);}
	.st2{fill:#6FD9F8;}
</style>
<g transform="translate(0)">
	<path class="st0" d="M28.9,63.9h6V47.5h-6V63.9z"/>
	<path class="st0" d="M28.9,16.4h6V0h-6V16.4z"/>
	<path class="st0" d="M47.5,34.9h16.4v-6H47.5V34.9z"/>
	<path class="st0" d="M0,34.9h16.4v-6H0V34.9z"/>
	<g transform="translate(40.828 40.828)">
		<path class="st0" d="M0,4.2l11.6,11.6l4.2-4.2L4.2,0L0,4.2z"/>
	</g>
	<g transform="translate(7.233 7.233)">
		<path class="st0" d="M0,4.2l11.6,11.6l4.2-4.2L4.2,0L0,4.2z"/>
	</g>
	<g transform="translate(40.811 7.233)">
		<path class="st0" d="M4.2,15.8L15.8,4.2L11.6,0L0,11.6L4.2,15.8z"/>
	</g>
	<g transform="translate(7.233 40.828)">
		<path class="st0" d="M4.2,15.8L15.8,4.2L11.6,0L0,11.6L4.2,15.8z"/>
	</g>
	<g>
		<defs>
			<rect id="SVGID_1_" width="63.9" height="63.9"/>
		</defs>
		<clipPath id="SVGID_2_">
			<use xlink:href="#SVGID_1_"  style="overflow:visible;"/>
		</clipPath>
		<g transform="translate(0 0)" class="st1">
			<g transform="translate(22.222 22.221)">
				<path class="st0" d="M9.7,19.4c5.4,0,9.7-4.4,9.7-9.7c0-5.4-4.4-9.7-9.7-9.7c0,0,0,0,0,0C4.4,0,0,4.4,0,9.7c0,0,0,0,0,0
					C0,15.1,4.4,19.4,9.7,19.4"/>
			</g>
		</g>
	</g>
</g>
<path class="st2" d="M91.7,116.4h6V52.5h-6V116.4z"/>
<g transform="translate(15.251 3.246)">
	<path class="st2" d="M63.9,56.8L78,70.9l4.2-4.2L68.1,52.5L63.9,56.8z"/>
</g>
<g transform="translate(26.826 3.246)">
	<path class="st2" d="M68.1,70.9l14.1-14.1L78,52.5L63.9,66.6L68.1,70.9z"/>
</g>
<g transform="translate(26.826 43.298)">
	<path class="st2" d="M82.2,66.6L68.1,52.5l-4.2,4.2L78,70.9L82.2,66.6z"/>
</g>
<g transform="translate(15.251 43.298)">
	<path class="st2" d="M78,52.5L63.9,66.6l4.2,4.2l14.1-14.1L78,52.5z"/>
</g>
<g transform="translate(1.334 12.868)">
	<path class="st2" d="M63.9,57.7l55.3,31.9l3-5.2L66.9,52.5L63.9,57.7z"/>
</g>
<g transform="translate(0 21.714)">
	<path class="st2" d="M63.9,57.7l1.6,5.8l19.3-5.2l-1.6-5.8L63.9,57.7z"/>
</g>
<g transform="translate(10.712 6.765)">
	<path class="st2" d="M74.8,71.8l-5.2-19.3l-5.8,1.6L69,73.3L74.8,71.8z"/>
</g>
<g transform="translate(40.473 31.715)">
	<path class="st2" d="M63.9,57.7l1.6,5.8l19.3-5.2l-1.6-5.8L63.9,57.7z"/>
</g>
<g transform="translate(39.611 36.814)">
	<path class="st2" d="M63.9,54.1L69,73.3l5.8-1.6l-5.2-19.3L63.9,54.1z"/>
</g>
<g transform="translate(0.752 12.868)">
	<path class="st2" d="M63.9,84.5l3,5.2l55.3-31.9l-3-5.2L63.9,84.5z"/>
</g>
<g transform="translate(10.712 36.316)">
	<path class="st2" d="M69.7,73.3l5.2-19.3L69,52.5l-5.2,19.3L69.7,73.3z"/>
</g>
<g transform="translate(0 31.217)">
	<path class="st2" d="M63.9,58.3l19.3,5.2l1.6-5.8l-19.3-5.2L63.9,58.3z"/>
</g>
<g transform="translate(39.611 6.266)">
	<path class="st2" d="M69,52.5l-5.2,19.3l5.8,1.6l5.2-19.3L69,52.5z"/>
</g>
<g transform="translate(40.473 21.214)">
	<path class="st2" d="M63.9,58.3l19.3,5.2l1.6-5.8l-19.3-5.2L63.9,58.3z"/>
</g>
</svg>
