<svg xmlns="http://www.w3.org/2000/svg" xmlns:xlink="http://www.w3.org/1999/xlink" viewBox="0 0 135.572 65.668">
  <defs>
    <style>
      .cls-1 {
        fill: none;
      }

      .cls-2 {
        clip-path: url(#clip-path);
      }

      .cls-3 {
        fill: #89ddff;
      }

      .cls-4 {
        fill: #ddf4ff;
      }
    </style>
    <clipPath id="clip-path">
      <path id="Path_262" data-name="Path 262" class="cls-1" d="M0,0H135.572V-65.668H0Z"/>
    </clipPath>
  </defs>
  <g id="ill_wolken" transform="translate(-7246 -5826.668)">
    <g id="Group_341" data-name="Group 341" class="cls-2" transform="translate(7246 5892.336)">
      <g id="Group_335" data-name="Group 335" transform="translate(88.969 -34.952)">
        <path id="Path_256" data-name="Path 256" class="cls-3" d="M0,0A24.361,24.361,0,0,1-24.361,24.361,24.36,24.36,0,0,1-48.721,0a24.36,24.36,0,0,1,24.36-24.361A24.361,24.361,0,0,1,0,0"/>
      </g>
      <g id="Group_336" data-name="Group 336" transform="translate(112.271 -43.425)">
        <path id="Path_257" data-name="Path 257" class="cls-3" d="M0,0A15.887,15.887,0,0,1-15.887,15.887,15.887,15.887,0,0,1-31.775,0,15.887,15.887,0,0,1-15.887-15.887,15.887,15.887,0,0,1,0,0"/>
      </g>
      <g id="Group_337" data-name="Group 337" transform="translate(72.023 -26.479)">
        <path id="Path_258" data-name="Path 258" class="cls-4" d="M0,0A15.887,15.887,0,0,1-15.887,15.887,15.887,15.887,0,0,1-31.775,0,15.887,15.887,0,0,1-15.887-15.887,15.887,15.887,0,0,1,0,0"/>
      </g>
      <g id="Group_338" data-name="Group 338" transform="translate(88.969 -54.017)">
        <path id="Path_259" data-name="Path 259" class="cls-4" d="M0,0A11.651,11.651,0,0,1-11.651,11.651,11.651,11.651,0,0,1-23.3,0,11.651,11.651,0,0,1-11.651-11.651,11.651,11.651,0,0,1,0,0"/>
      </g>
      <g id="Group_339" data-name="Group 339" transform="translate(135.572 -23.302)">
        <path id="Path_260" data-name="Path 260" class="cls-4" d="M0,0A8.473,8.473,0,0,1-8.473,8.473,8.473,8.473,0,0,1-16.947,0,8.473,8.473,0,0,1-8.473-8.473,8.473,8.473,0,0,1,0,0"/>
      </g>
      <g id="Group_340" data-name="Group 340" transform="translate(59.313 -29.656)">
        <path id="Path_261" data-name="Path 261" class="cls-4" d="M0,0A29.656,29.656,0,0,1-29.656,29.656,29.656,29.656,0,0,1-59.313,0,29.656,29.656,0,0,1-29.656-29.656,29.656,29.656,0,0,1,0,0"/>
      </g>
    </g>
  </g>
</svg>
